<?xml version="1.0" encoding="utf-8"?>
<!-- Generator: Adobe Illustrator 25.0.1, SVG Export Plug-In . SVG Version: 6.00 Build 0)  -->
<svg version="1.1" id="Layer_1" xmlns="http://www.w3.org/2000/svg" xmlns:xlink="http://www.w3.org/1999/xlink" x="0px" y="0px"
	 viewBox="0 0 260 50" style="enable-background:new 0 0 260 50;" xml:space="preserve">
<style type="text/css">
	.st0{fill:#D91433;}
</style>
<path class="st0" d="M34.7,4.2L25.3,17c0,0,48.6,0,51.1,0c2.6,0,2.6,1,1.3,2.7c-1.3,1.7-3.4,4.8-4.7,6.5c-0.7,0.9-1.9,2.5,2.1,2.5
	c4.2,0,20.9,0,20.9,0s3.4-4.6,6.2-8.4c3.8-5.2,0.3-16.1-13.4-16.1C76.5,4.2,34.7,4.2,34.7,4.2L34.7,4.2 M21.5,45.8l18.8-25.6
	c0,0,20.9,0,23.4,0c2.6,0,2.6,1,1.3,2.7c-1.3,1.7-3.5,4.7-4.8,6.5c-0.7,0.9-1.9,2.5,2.1,2.5c4.2,0,31.3,0,31.3,0
	c-2.6,3.6-11.1,13.9-26.2,13.9C55.2,45.8,21.5,45.8,21.5,45.8L21.5,45.8 M129.5,31.9l-10.2,13.9h-27c0,0,10.2-13.9,10.2-13.9
	L129.5,31.9L129.5,31.9 M170.8,28.7h-65.9l18-24.5h27l-10.3,14h12l10.3-14h26.9L170.8,28.7L170.8,28.7 M168.5,31.9l-10.2,13.9h-26.9
	c0,0,10.2-13.9,10.2-13.9H168.5L168.5,31.9 M226.1,4.2l-18,24.5h-28.6c0,0,18-24.5,18-24.5H226.1L226.1,4.2 M177.2,31.9
	c0,0-2,2.7-2.9,4c-3.4,4.6-0.4,9.9,10.7,9.9c12.8,0,43.3,0,43.3,0l10.2-13.9L177.2,31.9L177.2,31.9"/>
</svg>
