<?xml version="1.0" encoding="utf-8"?>
<!-- Generator: Adobe Illustrator 25.0.1, SVG Export Plug-In . SVG Version: 6.00 Build 0)  -->
<svg version="1.1" id="Layer_1" xmlns="http://www.w3.org/2000/svg" xmlns:xlink="http://www.w3.org/1999/xlink" x="0px" y="0px"
	 viewBox="0 0 260 50" style="enable-background:new 0 0 260 50;" xml:space="preserve">
<style type="text/css">
	.st0{fill:none;}
	.st1{fill-rule:evenodd;clip-rule:evenodd;fill:#ED1C24;}
</style>
<g>
	<rect id="canvas_background" x="-1" y="-1" class="st0" width="262" height="52"/>
</g>
<path id="path16" class="st1" d="M8.5,18.9c0.7-3,1.6-6.5,6.6-6.5h20.3c7.4,0,6.5,4.1,5.9,6.5L38.6,30H17.1l-0.8,3.4
	c-0.5,2.2,1,3.6,3.7,3.6H37l-1.9,7.8H9.9c-7.6,0-7-2.7-6-6.6L8.5,18.9C8.5,18.9,8.5,18.9,8.5,18.9z M18.6,23.8h10.1l0.7-2.7
	c0.2-0.8,0.5-2.1-1.4-2.1h-6.1c-1.6,0-2.2,1-2.5,2L18.6,23.8L18.6,23.8z M72.4,12.3H52.7c-6,0-6.9,3.5-7.7,6.7
	c-0.7,3.2,0.4,6.1,4.3,8.9c3.9,2.8,8.3,4.6,7.5,7.1c-0.3,1.1-1.6,1.8-4.3,1.8H40.7l-1.9,7.8h19.6c3.8,0,8.6,0.1,10.8-3.5
	c2.3-3.6,1.6-6.5-0.4-9.5c-2-3-6-4.9-9-7.8C58,22.1,58.1,19,61,19h9.8L72.4,12.3L72.4,12.3L72.4,12.3z M76,12.3h6.3l2-8.3h11.5
	l-2,8.3c2,0,3.9,0,5.9,0c-0.5,2.2-1.1,4.4-1.6,6.7h-5.9l-3.7,15.1c-0.7,2.7,0.2,3.9,3.7,3.9l-1.6,6.7h-8.5c-7.7,0-6.4-5.3-5.8-7.8
	L80.7,19h-6.3L76,12.3L76,12.3z M101.8,19l1.6-6.7H128c6,0,5.2,4.5,4.7,6.7l-4.6,19c-1.2,5,0.3,5.4,1.3,6.7h-11
	c-1.2,0-2.8-0.9-3.4-1.5c-2.6,0.8-2.8,2.5-8.1,2.4c-5.4-0.1-11.4-4.9-10.9-11.3c0.5-6.4,6.1-10.3,11.2-10.3h12.5l0.7-2.9
	c0.5-1.9-1-1.9-1.9-1.9L101.8,19L101.8,19L101.8,19z M118.7,29.3h-7.5c-3.1,0-7.3,3.7-3.8,7.4C111,40.3,117.4,34.8,118.7,29.3z
	 M161.5,4h-10.8c-2.8,0-6.3,0-7.7,5.9l-0.6,2.4h-4.8l-1.6,6.7h4.8l-5.6,23.2c-0.2,1-0.6,1.7-1.8,2.5h8.8c3,0,4.6-2.7,5.5-6.7l4.6-19
	h5.7l1.6-6.7h-5.7l0.3-1.4c0.2-1,1.1-1.8,2.7-1.8l3.4,0L161.5,4L161.5,4L161.5,4z M161.9,18.9c0.7-3,1.6-6.5,6.6-6.5h20.3
	c7.4,0,6.5,4.1,5.9,6.5L192,30h-21.5l-0.8,3.4c-0.5,2.2,1,3.6,3.7,3.6h16.9l-1.9,7.8h-25.2c-7.6,0-7-2.7-6-6.6L161.9,18.9
	C161.9,18.9,161.9,18.9,161.9,18.9z M172,23.8H182l0.7-2.7c0.2-0.8,0.5-2.1-1.4-2.1h-6.1c-1.6,0-2.2,1-2.5,2L172,23.8z M199.7,12.3
	h6.3l2-8.3h11.5l-2,8.3c2,0,3.9,0,5.9,0c-0.5,2.2-1.1,4.4-1.6,6.7h-5.9l-3.7,15.1c-0.7,2.7,0.2,3.9,3.7,3.9l-1.6,6.7h-8.5
	c-7.7,0-6.4-5.3-5.8-7.8l4.3-17.9H198L199.7,12.3z M225.4,19l1.6-6.7h24.6c6,0,5.2,4.5,4.7,6.7l-4.6,19c-1.2,5,0.3,5.4,1.3,6.7h-11
	c-1.2,0-2.8-0.9-3.4-1.5c-2.6,0.8-2.8,2.5-8.1,2.4c-5.4-0.1-11.4-4.9-10.9-11.3c0.5-6.4,6.1-10.3,11.2-10.3h12.5l0.7-2.9
	c0.5-1.9-1-1.9-1.9-1.9L225.4,19L225.4,19L225.4,19z M242.4,29.3h-7.5c-3.1,0-7.3,3.7-3.8,7.4C234.6,40.3,241.1,34.8,242.4,29.3"/>
</svg>
