<?xml version="1.0" encoding="utf-8"?>
<!-- Generator: Adobe Illustrator 25.0.1, SVG Export Plug-In . SVG Version: 6.00 Build 0)  -->
<svg version="1.1" id="Layer_1" xmlns="http://www.w3.org/2000/svg" xmlns:xlink="http://www.w3.org/1999/xlink" x="0px" y="0px"
	 viewBox="0 0 160 50" style="enable-background:new 0 0 160 50;" xml:space="preserve">
<style type="text/css">
	.st0{fill:#FEFEFD;}
	.st1{fill:#312280;}
	.st2{fill:#EA6214;}
</style>
<g id="svg_1">
	<g id="g28" transform="matrix(0.2503147524641731,0,0,-0.2503147524641731,-0.011297213698952646,74.29011560820331) ">
		<path id="path30" class="st0" d="M154.9,200.1c8.9,6.4,22.1,5.2,30.1-2.1c3.7-3.3,5.3-8.2,6.9-12.7c-15.6-0.4-31.3-0.1-46.9,0
			C146.8,190.9,149.7,196.6,154.9,200.1"/>
	</g>
	<g id="g32" transform="matrix(0.2503147524641731,0,0,-0.2503147524641731,-0.011297213698952646,74.29011560820331) ">
		<path id="path34" class="st0" d="M294.6,198.1c7,1.4,14.6,0.3,20.2-4.3c6.1-4.9,8.7-12.8,10.1-20.2c1.5-11-0.1-23.3-8-31.7
			c-8.5-8-23-8.4-31.8-0.8c-9.2,7.9-12.5,21.2-10,32.8C276.6,184.7,283.6,195.5,294.6,198.1"/>
	</g>
	<g id="g44" transform="matrix(0.2503147524641731,0,0,-0.2503147524641731,-0.011297213698952646,74.29011560820331) ">
		<path id="path46" class="st1" d="M294.6,198.1c-11-2.6-18-13.4-19.5-24.1c-2.5-11.6,0.8-24.9,10-32.8c8.8-7.6,23.3-7.2,31.8,0.8
			c7.9,8.3,9.5,20.7,8,31.7c-1.4,7.4-4,15.3-10.1,20.2C309.3,198.4,301.6,199.6,294.6,198.1 M154.9,200.1c-5.2-3.4-8.1-9.1-10-14.8
			c15.7-0.1,31.3-0.4,46.9,0c-1.5,4.6-3.2,9.4-6.9,12.7C177,205.3,163.8,206.4,154.9,200.1 M3.5,293.5c36.9,0.2,73.8,0.1,110.7,0.1
			c0.2-14,0.2-28,0-41.9c-20.2-0.1-40.4-0.1-60.6,0c-0.1-8.7-0.1-17.4,0-26.1c18.6,0.1,37.1,0,55.7,0.1c0.1-7.7,0-15.4,0-23.1
			c4.2,6.3,9.5,11.9,15.3,16.8c9.7,7.3,21.5,11.7,33.5,13.1c12,0.7,24.4,0.9,35.8-3.5c14.6-4.7,26.7-15.7,33.7-29.2
			c2-3.7,3.5-7.7,5.1-11.6c4.9,16.1,16,30.4,31.1,38.2c13.6,6.7,29.7,8.3,44.2,3.8c7.3-2.3,13.5-6.9,18.7-12.3
			c0.1,25.4,0,50.7,0,76.1c14.7-0.1,29.4,0.1,44.1-0.1c-0.3-36.2,0-72.4-0.1-108.5c0.1-25.8-0.1-51.7,0.1-77.6
			c-14.5-0.5-29-0.2-43.4-0.2c-0.1,4-0.1,8.1-0.1,12.1l-0.4-0.6c-6.6-8.7-16-15.7-26.9-17.8c-13.7-2.4-28.1,0.6-39.9,8
			c-16.7,10.5-27.9,29.1-30,48.6c-27.3,0.1-54.7,0-82,0.1c-1.5-0.1-3.2,0.2-4.6-0.6c0.6-8,4.9-15.8,11.6-20.2
			c7.6-5.2,17.8-5.5,26.2-2c3.6,1.9,6.2,5.3,8.8,8.4c14.2-0.2,28.4,0.1,42.7-0.1c-5.7-15-16.5-28.6-31.1-35.6
			c-13.6-6.7-29.4-8.1-44.3-6.2c-17.5,2.3-34.2,11.7-44.6,26.1c-8.2,11.3-12.7,25.4-12.3,39.4c-0.3,6.1,0.9,12.2,1.6,18.3
			c-16.1,0.1-32.3,0-48.4,0c-0.1-26.1,0-52.3,0-78.4c-16.7-0.3-33.4,0-50.1-0.1C3.4,169,3.3,231.3,3.5,293.5"/>
	</g>
	<g id="g48" transform="matrix(0.2503147524641731,0,0,-0.2503147524641731,-0.011297213698952646,74.29011560820331) ">
		<path id="path50" class="st2" d="M370.7,293.5c34.6-0.1,69.2-0.1,103.9,0c0-13.9,0-27.8,0-41.7c-19.9-0.5-39.8-0.1-59.7-0.2
			c-0.1-8.7-0.8-17.5,0.5-26.2c19.8,0.1,39.6,0.1,59.5,0.1c-0.4-13.3,0-26.7-0.2-40c-19.7-0.1-39.5,0-59.2,0
			c-1.3-7.1-0.5-14.3-0.7-21.4c0-5.1-0.3-10.3,0.6-15.4c19.6,0.1,39.2,0.3,58.8,0c1.3-3.9,0.2-8.4,0.5-12.5c0.4-9-0.9-18.1,1-26.9
			c7.1,7,13.2,14.9,20.2,22c5.8,7.4,12.6,14.1,18.7,21.3c4,4.6,8.7,8.6,12.1,13.7c-0.5,1-1.1,1.9-1.8,2.7
			c-9.9,11.1-19.8,22.2-29.8,33.3c-6.5,7.9-14.1,14.9-20.2,23.2c13,0.4,26,0.1,39,0.2c5.3-0.1,10.7,0.3,16-0.2
			c9.5-8.7,16.9-19.5,26.8-27.9c6.9,8.1,14.2,15.8,20.9,24c1.7,1.8,3.4,4.6,6.3,4.1c16.9-0.1,33.8,0.2,50.7-0.2
			c-2.2-3.4-4.8-6.5-7.6-9.4c-14.6-16.4-29.4-32.5-43.7-49.2c5.2-8,12.8-14.2,18.8-21.6c8.3-8.7,16.2-17.8,24.3-26.7
			c3.2-3.8,6.9-7.3,9.5-11.6c-17-0.3-34,0-51-0.1c-2,0.1-4.4-0.3-5.8,1.3c-8.3,9.3-16.4,18.8-25,27.8c-7.4-8.5-15.3-16.6-22.4-25.4
			c-1.5-1.7-3-4.1-5.7-3.7c-66.4-0.1-132.8,0-199.2,0.1c-0.1,4-0.2,8,0.1,12l0.4,0.6c0-4,0-8.1,0.1-12.1c14.5,0,29-0.3,43.4,0.2
			c-0.2,25.8,0,51.7-0.1,77.6C370.7,221.1,370.4,257.3,370.7,293.5"/>
	</g>
</g>
</svg>
