<?xml version="1.0" encoding="utf-8"?>
<!-- Generator: Adobe Illustrator 25.0.1, SVG Export Plug-In . SVG Version: 6.00 Build 0)  -->
<svg version="1.1" id="Layer_1" xmlns="http://www.w3.org/2000/svg" xmlns:xlink="http://www.w3.org/1999/xlink" x="0px" y="0px"
	 viewBox="0 0 353 50" style="enable-background:new 0 0 353 50;" xml:space="preserve">
<style type="text/css">
	.st0{fill-rule:evenodd;clip-rule:evenodd;fill:#002A52;}
</style>
<desc>Paquetexpress</desc>
<path class="st0" d="M7.1,46V1.2h9c4.6,0,8.1,1.1,10.6,3.3c2.2,2.2,3.5,5.4,3.5,9.8s-1.1,7.6-3.5,9.8c-2.2,2.4-5.2,3.5-9.2,3.5
	c-0.5,0-1.1,0-1.4,0s-0.5,0-0.5,0L15.2,46H7.1L7.1,46z M15.2,20.8c0.3,0,0.3,0,0.5,0c0.3,0,0.3,0,0.5,0c1.9,0,3.3-0.5,4.1-1.6
	c1.1-1.1,1.6-2.7,1.6-4.6c0-2.2-0.5-3.8-1.4-4.9c-1.1-1.1-2.4-1.4-4.3-1.4c-0.3,0-0.3,0-0.5,0c-0.3,0-0.3,0-0.5,0V20.8L15.2,20.8z
	 M87.4,45.2l-4.6,4.1l-4.1-4.6c-0.8,0.5-1.9,1.1-3,1.4c-1.1,0.3-2.4,0.5-3.8,0.5c-4.9,0-8.7-2.2-11.4-6.2c-2.4-4.1-3.8-9.8-3.8-17.4
	c0-6.8,1.4-12.2,4.1-16.3s6.2-6,11.1-6c4.9,0,8.4,1.9,11.1,6.2c2.7,4.1,4.1,9.8,4.1,17.4c0,3.5-0.3,6.8-1.1,9.5
	c-0.5,2.4-1.6,4.6-3,6.2L87.4,45.2z M73.3,28.9l4.1,4.6c0.3-1.1,0.5-2.7,0.8-4.1c0.3-1.6,0.3-3.5,0.3-5.7c0-4.9-0.5-8.4-1.6-10.9
	c-1.1-2.4-2.7-3.8-4.9-3.8c-2.4,0-4.1,1.4-5.2,3.8c-1.1,2.4-1.6,6.5-1.6,11.7c0,4.3,0.5,7.9,1.6,10.3c1.4,2.2,3,3.5,4.9,3.5
	c0.3,0,0.5,0,0.8-0.3c0,0,0.3,0,0.5,0L68.7,33L73.3,28.9z M118.1,1.2v28.2c0,3.5,0,6-0.3,7.3c-0.3,1.4-0.5,2.7-1.1,3.5
	c-1.1,2.2-2.4,3.8-4.6,4.9c-1.9,0.8-4.3,1.4-7.6,1.4c-3,0-5.7-0.5-7.6-1.4c-2.2-1.1-3.5-2.7-4.6-4.9c-0.5-1.1-0.8-2.2-1.1-3.5
	c0-1.6-0.3-4.1-0.3-7.3v-1.4V1.2h8.7V30c0,3.8,0.3,6.2,1.1,7.3c0.8,0.8,1.9,1.4,3.8,1.4c1.9,0,3.3-0.5,3.8-1.6
	c0.8-1.1,1.1-3.3,1.1-7.1V1.2H118.1z M123.8,46V1.2H142v8.4h-10v9h9v8.1h-9v10.6h10V46H123.8z M153.2,46V9.7h-6.5V1.2h22v8.4h-6.8
	V46H153.2z M172.4,46V1.2h18.2v8.4h-10v9h9v8.1h-9v10.6h10V46H172.4z M213.2,46l-3.5-9c-0.3-1.1-0.5-2.2-0.8-3.3
	c-0.3-1.1-0.5-2.2-0.8-3.5c-0.3,1.4-0.5,2.4-0.8,3.5c-0.3,1.4-0.5,2.2-0.8,3.3l-3,9h-9.8l10-22.5l-9.2-22.3h9.2l3.3,9.5
	c0,0.5,0.3,1.1,0.5,1.9c0.3,1.1,0.5,2.2,0.8,3.5c0.3-1.4,0.3-2.2,0.5-3.3c0.3-0.8,0.5-1.6,0.8-2.2l3.3-9.5h9l-9.2,22.3l9.8,22.5
	H213.2z M225.1,46V1.2h9c4.9,0,8.4,1.1,10.6,3.3c2.4,2.2,3.5,5.4,3.5,9.8s-1.1,7.6-3.3,9.8c-2.4,2.4-5.4,3.5-9.5,3.5
	c-0.5,0-0.8,0-1.1,0c-0.3,0-0.5,0-0.8,0V46H225.1z M233.5,20.8h0.3c0.3,0,0.5,0,0.5,0c1.9,0,3.3-0.5,4.3-1.6
	c0.8-1.1,1.4-2.7,1.4-4.6c0-2.2-0.5-3.8-1.4-4.9c-0.8-1.1-2.4-1.4-4.3-1.4c0,0-0.3,0-0.5,0h-0.3V20.8z M251.4,46V1.2h9
	c4.9,0,8.4,1.1,10.9,3c2.2,2.2,3.3,5.2,3.3,9.8c0,3-0.5,5.7-1.6,7.6c-1.4,1.9-3,3.3-5.2,4.1l8.1,20.4h-9l-7.1-18.5V46H251.4z
	 M259.9,20.8h0.3c0.3,0,0.5,0,0.5,0c1.9,0,3.3-0.5,4.3-1.6c0.8-1.1,1.4-2.7,1.4-4.9c0-2.2-0.3-3.5-1.4-4.6c-0.8-1.1-2.2-1.4-4.1-1.4
	c-0.3,0-0.5,0-0.8,0h-0.3V20.8z M279.7,46V1.2h18.2v8.4h-9.8v9h9v8.1h-9v10.6h9.8V46H279.7z M303,44.7v-9.5c1.1,1.1,2.2,1.9,3.3,2.2
	c1.1,0.5,2.2,0.8,3.3,0.8c1.4,0,2.7-0.3,3.5-1.1c0.8-0.8,1.1-1.9,1.1-3.3c0-1.9-1.1-3.5-3.3-5.7c-0.8-0.5-1.1-0.8-1.4-1.1
	c-2.7-2.7-4.6-4.9-5.7-6.8c-0.8-1.9-1.4-4.1-1.4-6.5c0-4.1,1.1-7.1,3.3-9.5c1.9-2.4,4.9-3.5,8.1-3.5c1.4,0,2.4,0.3,3.5,0.5
	c1.4,0.3,2.4,0.8,3.8,1.6v7.9c-1.6-0.8-2.7-1.1-3.5-1.6c-0.8-0.3-1.6-0.3-2.2-0.3c-1.4,0-2.4,0.3-3.3,1.1c-0.8,0.8-1.1,1.9-1.1,3.3
	c0,1.1,0.3,2.2,0.8,3.3c0.8,1.1,2.2,2.4,4.3,4.3c2.7,2.7,4.6,4.9,5.4,6.5c0.8,1.6,1.4,3.8,1.4,6.2c0,4.1-1.1,7.3-3.3,9.5
	c-2.4,2.4-5.4,3.5-9.2,3.5c-1.4,0-2.7,0-4.1-0.5C305.5,45.8,304.1,45.2,303,44.7 M325.8,44.7v-9.5c1.1,1.1,2.2,1.9,3.3,2.2
	c1.1,0.5,2.2,0.8,3.3,0.8c1.4,0,2.7-0.3,3.5-1.1c0.8-0.8,1.1-1.9,1.1-3.3c0-1.9-1.1-3.5-3.3-5.7c-0.8-0.5-1.1-0.8-1.4-1.1
	c-2.7-2.7-4.6-4.9-5.7-6.8c-0.8-1.9-1.4-4.1-1.4-6.5c0-4.1,1.1-7.1,3.3-9.5c1.9-2.4,4.9-3.5,8.1-3.5c1.4,0,2.4,0.3,3.5,0.5
	c1.4,0.3,2.4,0.8,3.8,1.6v7.9c-1.6-0.8-2.7-1.1-3.5-1.6c-0.8-0.3-1.6-0.3-2.2-0.3c-1.4,0-2.4,0.3-3.3,1.1c-0.8,0.8-1.1,1.9-1.1,3.3
	c0,1.1,0.3,2.2,0.8,3.3c0.8,1.1,2.2,2.4,4.3,4.3c2.7,2.7,4.6,4.9,5.4,6.5c0.8,1.6,1.4,3.8,1.4,6.2c0,4.1-1.1,7.3-3.3,9.5
	c-2.4,2.4-5.4,3.5-9.2,3.5c-1.4,0-2.7,0-4.1-0.5C328.3,45.8,326.9,45.2,325.8,44.7 M42.4,19.7l-1.1-6.8l0,0l-0.8,6.8l-1.9,11.9h6
	L42.4,19.7z M46.2,1.2L56.5,46h-9l-1.6-7.6h-8.7L35.6,46h-8.4l10-44.8H46.2z"/>
</svg>
