<?xml version="1.0" encoding="utf-8"?>
<!-- Generator: Adobe Illustrator 25.0.1, SVG Export Plug-In . SVG Version: 6.00 Build 0)  -->
<svg version="1.1" id="Layer_1" xmlns="http://www.w3.org/2000/svg" xmlns:xlink="http://www.w3.org/1999/xlink" x="0px" y="0px"
	 viewBox="0 0 330 50" style="enable-background:new 0 0 330 50;" xml:space="preserve">
<style type="text/css">
	.st0{fill:#D53027;}
	.st1{clip-path:url(#SVGID_2_);}
	.st2{fill:#233E80;}
</style>
<g>
	<path class="st0" d="M1.2,48.8L23.6,1.2h11.6v11h-3.7l-6.3,13.4h7.5h1h1h0.6v23.2h-5.7l3.1-6.6l0.3-0.7l0.2-0.7l0.2-0.6l0.1-0.6
		l0.1-0.5v-0.4v-0.4L33.2,38L33,37.7l-0.3-0.3l-0.4-0.2l-0.4-0.1L31.4,37l-0.5-0.2h-0.7H19.9l-5.7,12H1.2z M35.1,1.2h16L52,1.3
		l0.9,0.1h0.8l0.8,0.1l0.7,0.1l0.7,0.2L56.6,2l0.6,0.2l0.6,0.2l0.5,0.3L58.7,3l0.4,0.3L59.8,4l0.1,0.3l0.2,0.5l0.1,0.5l0.1,0.5
		l0.1,0.5v1.3l-0.1,0.7l0,0.7l-0.1,0.7L60,10.5l-0.3,0.8l-0.3,0.8l-0.4,1L58.6,14l-0.5,1l-1.4,3l-0.5,1l-0.5,0.9L55.3,21l-0.6,0.9
		l-0.5,0.8l-0.6,0.7L53,24.2l-0.6,0.7l-0.5,0.7l-0.6,0.6l-0.7,0.6L50,27.4l-0.7,0.5l-0.7,0.5l-0.7,0.4l-0.7,0.4l-0.6,0.3L46,29.8
		l-0.7,0.3l-0.7,0.2l-0.7,0.2l-0.7,0.2L41.9,31l0.8,0.1l0.7,0.1l0.7,0.2l0.6,0.2l0.5,0.2l0.5,0.2l0.4,0.2l0.3,0.2l0.2,0.3l0.2,0.3
		l0.1,0.4l0.1,0.4l0.1,0.5v1l0.2,0.7l-0.1,0.7l-0.1,0.6L46.8,38l-0.2,0.7l-0.3,0.8L46,40.4l-0.4,0.8l-0.4,0.9l-3.1,6.6h-6.9V25.6
		h0.3l0.8-0.1l0.7-0.1l0.7-0.2l0.6-0.2l0.5-0.2l0.6-0.4L40,24l0.6-0.6l0.5-0.6l0.6-0.7l0.5-0.8l0.5-0.9l0.5-0.9l1.4-3.1l0.3-0.7
		l0.2-0.6l0.1-0.6V14v-0.2v-0.2l-0.1-0.2v-0.2l-0.2,0l-0.1-0.1L44.7,13l-0.1-0.1l-0.2-0.1l-0.5-0.2h-0.4L43,12.5h-0.5h-0.6h-1.5
		h-5.3V1.2"/>
	<path class="st0" d="M46.7,48.8L69,1.2h34.7l-4.9,10.5H77.1L73,20.6h20.2l-4.1,8.9H68.8l-4.2,8.9h22l-4.9,10.5L46.7,48.8"/>
	<path class="st0" d="M85.7,48.8l22.4-47.6h9.5v11h-1.7l-12,25.5h11.7h0.5l0.5-0.1l0.5-0.1l0.4-0.1v10.7l-1,0.2l-1.3,0.1l-2.6,0.3
		h-1.4L85.7,48.8L85.7,48.8z M117.5,1.2h16.9h1.3l1.2,0.1l1.1,0.1l1,0.1l1,0.3l0.9,0.2l0.8,0.3l0.7,0.3l0.7,0.4l1.1,0.8l0.4,0.6
		L145,5l0.3,0.6l0.2,0.7l0.1,0.6l0.1,0.7v0.7v0.8l-0.1,0.7l-0.1,0.9l-0.1,0.9l-0.3,1l-0.3,1l-0.3,1.1l-0.4,1.2l-0.4,1.2l-0.5,1.3
		l-0.6,1.3l-0.6,1.4l-0.7,1.4l-2.4,4.9l-0.7,1.4l-0.7,1.4l-0.7,1.3l-0.7,1.3l-0.7,1.2l-0.7,1.1l-0.7,1.2l-0.7,1l-0.7,1l-0.7,0.9
		l-0.7,0.9l-0.7,0.8l-0.7,0.7l-0.7,0.7l-0.7,0.7l-0.7,0.6l-0.8,0.6l-1.8,1.1l-1,0.5l-0.9,0.4l-1,0.4l-1.1,0.4l-2.2,0.7l-1.2,0.2
		h-0.2V37.4h0.1l0.5-0.2l0.5-0.1l0.5-0.1l0.4-0.2l0.4-0.2l0.4-0.3l0.4-0.3l0.4-0.3l0.4-0.3l0.3-0.3l0.3-0.4l0.3-0.5l0.4-0.6l0.5-0.7
		l0.4-0.8l1.1-2.1l1.2-2.6l2.3-4.8l1.1-2.5l0.9-2l0.6-1.4l0.2-0.5l0.1-0.4v-0.4V15v-0.4v-0.3V14l-0.1-0.3l-0.1-0.3l-0.2-0.2
		l-0.2-0.2l-0.3-0.2l-0.3-0.1l-0.3-0.1l-0.3-0.1h-0.4l-0.4-0.1h-10.8V1.2"/>
	<path class="st0" d="M132.3,48.8l22.4-47.6h11v11h-3.2L156,26h7.1h1.9h0.7v10.8l-0.8,0.1l-1.2,0.1l-1.2,0.1h-1.3h-10.4l-5.5,11.7
		C145.3,48.8,132.3,48.8,132.3,48.8z M165.8,1.2h13.7l1.1,0.1l1.1,0.1l1,0.1l0.9,0.1l0.9,0.1l0.8,0.2l0.8,0.2l0.7,0.2l0.6,0.3
		l0.6,0.2l0.5,0.3l0.5,0.3l0.4,0.3l0.3,0.3l0.3,0.5l0,0.5l0.2,0.6l0.1,0.6l0.1,0.7v0.7v0.7L190.2,9l-0.1,0.9l-0.2,0.9l-0.2,0.9
		l-0.3,1l-0.4,1l-0.4,1.1l-0.7,1.2l-0.5,1.3l-1.8,3.7l-0.6,1.3l-0.6,1.2l-0.7,1.2l-1.3,2.1l-0.6,0.9l-0.7,1l-0.7,0.8l-0.7,0.8
		l-1.4,1.4l-0.7,0.7l-0.7,0.6l-0.7,0.5l-0.8,0.5l-0.7,0.5l-0.6,0.3l-0.7,0.3l-0.7,0.3l-0.8,0.3l-0.8,0.2l-0.9,0.2l-0.9,0.2l-1,0.2
		l-1,0.1l-1,0.1h-0.3V26h0.1h0.7l0.6-0.1l0.6-0.1l0.5-0.1l0.4-0.1l0.6-0.3l0.6-0.4l0.6-0.4l0.5-0.6l0.5-0.6l0.5-0.7l0.5-0.7l0.4-0.8
		l1.6-3.6l0.4-0.7l0.3-0.7l0.2-0.7l0.1-0.5v-1v-0.3l-0.1-0.2v-0.1l-0.2-0.2l-0.3-0.2l-0.4-0.1l-0.5-0.1l-0.6-0.1H173l-0.7-0.1h-6.2
		V1.2"/>
	<path class="st0" d="M168.8,48.8l35.4-42.6v16l-8.2,9.8h8.1v8.8h-15.5l-6.5,8H168.8z M204.1,6.2l4.1-5h19.9l-9.3,47.6h-13.7l1.5-8
		h-2.6V32h4.4l3.7-19.5l-8.1,9.7v-16"/>
	<g>
		<g>
			<defs>
				<rect id="SVGID_1_" x="222.6" y="0.7" width="54.4" height="48.6"/>
			</defs>
			<clipPath id="SVGID_2_">
				<use xlink:href="#SVGID_1_"  style="overflow:visible;"/>
			</clipPath>
			<g class="st1">
				<path class="st0" d="M267.5,30.7l-0.6,1.4l-0.6,1.3l-0.7,1.3l-0.6,1.1l-0.7,1.1l-0.7,1.1l-0.7,1l-0.7,1l-0.7,0.9l-0.7,0.8
					l-0.7,0.8l-0.7,0.7l-0.7,0.7l-0.7,0.6l-0.8,0.6l-0.8,0.5l-0.7,0.5l-0.8,0.4l-0.8,0.4l-0.8,0.4l-1.9,0.7l-1,0.3l-1,0.2l-1.1,0.2
					l-1.2,0.2L246,49l-1.3,0.2l-1.2,0.1l-1.3,0.1h-4.3h-1.5l-1.5-0.1l-1.4-0.1l-1.3-0.1l-1.2-0.2l-1.1-0.2l-1-0.3l-0.9-0.2l-0.9-0.3
					l-0.8-0.4l-0.7-0.4l-0.6-0.4l-0.5-0.4l-0.5-0.5l-0.2-0.2l-0.1-0.3l-0.2-0.3l-0.1-0.3l-0.2-0.7l-0.1-0.7l-0.1-0.7v-0.9l0.1-0.9
					l0.1-1l0.2-1.1l0.3-1.1l0.3-1.2l0.4-1.3l0.5-1.4l0.5-1.4l0.6-1.5l0.7-1.5l0.7-1.6l2.3-4.8l0.8-1.6l0.7-1.5l0.8-1.5l0.7-1.4
					l0.8-1.4l0.8-1.3l0.8-1.2l0.8-1.1l0.8-1.1l0.8-1l0.8-0.9l0.7-0.9l0.8-0.7l0.8-0.7l0.8-0.7l0.8-0.6l0.8-0.5l0.9-0.5l0.9-0.4
					l1-0.4l1.1-0.4l1.1-0.3l1.2-0.3l1.2-0.3l1.3-0.3l1.3-0.2l1.4-0.2l1.4-0.2l1.5-0.1l1.5-0.1l1.6-0.1h3h1.2l1.2,0.1l1.1,0.1
					l1.1,0.1l1,0.1l0.9,0.2l0.8,0.1l0.8,0.2l0.7,0.2l0.7,0.3l0.6,0.3l0.6,0.4l0.5,0.3l0.4,0.4l0.4,0.4l0.3,0.5l0.3,0.6l0.2,0.6
					l0.1,0.7l0.1,0.7V8v0.8l-0.1,0.8l-0.2,0.9l-0.2,1l-0.3,1l-0.3,1.1l-0.4,1.1l-0.5,1.2l-0.5,1.2l-0.6,1.3l-0.1,0.1h-13l0.4-1
					l0.4-0.9l0.2-0.8l0.2-0.7v-0.3V14v-0.3v-0.2l-0.1-0.2l-0.1-0.2l-0.1-0.1l-0.1-0.2l-0.1-0.1l-0.4-0.2l-0.5-0.2l-0.6-0.1l-0.7-0.1
					H258l-0.9-0.1h-1.8h-0.6h-0.6l-0.7,0.1l-0.6,0.1l-0.6,0.1l-0.5,0.1l-0.5,0.2l-0.5,0.2l-0.5,0.2l-0.5,0.2l-0.8,0.6l-0.4,0.2
					l-0.4,0.3l-0.3,0.3l-0.5,0.5l-0.5,0.6l-0.5,0.8l-0.6,0.9l-0.6,1.1l-0.7,1.3l-0.7,1.4l-0.7,1.5l-2.3,4.9l-0.7,1.5l-0.6,1.4
					l-0.5,1.3l-0.4,1.1l-0.3,0.9l-0.2,0.8l-0.1,0.7v0.5v0.3v0.3l0.1,0.2l0.2,0.3l0.2,0.3l0.2,0.2l0.3,0.2l0.3,0.2l0.4,0.2l0.4,0.1
					l0.4,0.1l0.5,0.1h0.6l0.6,0.1h0.6h0.7h1.2h1.1l1-0.1l0.9-0.2l0.8-0.2l0.7-0.2l0.7-0.3l0.6-0.3l0.6-0.4l0.6-0.5l0.5-0.6l0.5-0.7
					l0.5-0.8l0.6-0.9l0.5-1l0.5-1.1h12.9"/>
			</g>
		</g>
	</g>
	<path class="st0" d="M275.4,48.8h-13.1l22.5-47.6h13L275.4,48.8"/>
	<path class="st2" d="M287.1,24L314,1.4h14.7l-29.9,26.1l7,21.6h-13l-6.1-20.4l-0.7-2.2L287.1,24"/>
</g>
</svg>
